<?xml version="1.0" encoding="utf-8"?><svg width="234" height="126" viewBox="0 0 234 126" fill="none" xmlns="http://www.w3.org/2000/svg">
<path fill-rule="evenodd" clip-rule="evenodd" d="M32.5001 24.4209C25.9226 24.8651 24.428 24.966 20.6927 21.9315L11.1939 14.3924C10.2251 13.4175 10.711 12.2014 13.1433 11.9602L79.8387 7.09563C85.4356 6.60818 88.3558 8.55699 90.5477 10.2586L101.987 18.5283C102.474 18.7705 103.689 20.2279 102.228 20.2279L33.3492 24.3638C33.057 24.3833 32.7741 24.4024 32.5001 24.4209ZM24.8281 110.456V37.9835C24.8281 34.8225 25.8018 33.3622 28.721 33.1169L107.826 28.4976C110.509 28.2544 111.724 29.958 111.724 33.1169V83.5225C113.072 83.1832 114.509 83 116 83C117.39 83 118.733 83.1591 120 83.4555V25.8211C120 23.0556 118.906 22.2567 115.68 19.9016C115.502 19.7721 115.319 19.6378 115.128 19.4982L92.983 3.93368C87.6285 0.0440428 85.4366 -0.445402 76.9175 0.285276L7.5434 5.39404C1.94945 5.8785 0 9.5279 0 13.903V89.7819C0 93.191 1.21516 96.1048 4.13735 99.9994L20.4453 121.158C23.124 124.565 25.5584 125.294 30.6734 125.05L111.237 120.185C118.051 119.701 120 116.537 120 111.187V104.544C118.733 104.841 117.39 105 116 105C114.509 105 113.072 104.817 111.724 104.477V105.103C111.724 108.267 111.236 110.946 106.853 111.187L31.1553 115.567C26.7745 115.808 24.8281 114.351 24.8281 110.456ZM97.3618 46.4974C99.5567 46.2512 100.042 44.0622 99.5567 41.8711L82.7569 42.849C80.3226 43.0902 78.3781 45.0351 78.864 47.7136L85.1942 48.4402V82.0036L60.3661 44.0631L42.3532 45.2773C38.9431 45.5225 37.728 48.6815 38.2158 50.8725L44.2996 51.36V99.2717L39.9179 100.486C38.2148 100.973 37.727 103.403 38.2148 104.377L55.0057 103.403C61.0964 103.403 61.0964 99.0275 61.0964 99.0275L53.5471 97.3239V61.087L77.4044 98.54C80.3226 102.186 81.2983 103.403 85.1942 103.403C87.6275 103.403 90.5477 102.43 93.7143 100.728V47.2241L97.3618 46.4974Z" fill="#040402"/>
<circle cx="116" cy="94" r="6" fill="#EB5757"/>
<path d="M168.128 74.8019C166.64 74.0819 165.392 73.0979 164.384 71.8499C163.376 70.6019 162.872 69.1619 162.872 67.5299C162.872 66.3299 163.184 65.4419 163.808 64.8659C164.48 64.2899 165.224 64.0019 166.04 64.0019C167.384 64.0019 168.392 64.6499 169.064 65.9459C169.736 67.2419 170.072 69.0179 170.072 71.2739C170.072 72.5219 170.024 73.4819 169.928 74.1539C169.352 79.0979 168.08 83.7779 166.112 88.1939C164.192 92.6099 161.6 96.2099 158.336 98.9939C155.12 101.73 151.4 103.098 147.176 103.098C144.152 103.098 141.992 102.234 140.696 100.506C139.4 98.7779 138.824 96.6659 138.968 94.1699C139.256 90.2339 140.888 85.8419 143.864 80.9939C146.888 76.1459 150.824 71.4179 155.672 66.8099C154.472 67.2899 153.104 68.0099 151.568 68.9699C150.368 69.7379 149.336 70.3379 148.472 70.7699C147.608 71.1539 146.84 71.3459 146.168 71.3459C145.64 71.3459 145.136 71.2019 144.656 70.9139C144.176 70.6259 143.864 70.4579 143.72 70.4099C142.856 69.8339 142.16 69.5459 141.632 69.5459C140.864 69.5459 140.216 69.8819 139.688 70.5539C139.208 71.1779 138.68 72.3299 138.104 74.0099L137.312 76.6739H135.944L137.528 71.4179C138.872 66.5219 141.128 64.0739 144.296 64.0739C144.92 64.0739 145.448 64.1939 145.88 64.4339C146.312 64.6259 146.864 64.9619 147.536 65.4419C148.16 65.9219 148.712 66.2819 149.192 66.5219C149.672 66.7619 150.224 66.8819 150.848 66.8819C153.248 66.8819 155.264 66.1379 156.896 64.6499L157.616 63.2819L159.128 64.0019C155.24 68.8019 152.216 73.5779 150.056 78.3299C147.896 83.0819 146.6 87.9539 146.168 92.9459C146.12 93.3779 146.096 93.9539 146.096 94.6739C146.096 98.7059 147.152 100.722 149.264 100.722C152.768 100.722 155.936 99.2579 158.768 96.3299C161.6 93.4019 163.832 89.8979 165.464 85.8179C167.096 81.6899 167.984 78.0179 168.128 74.8019Z" fill="#040402"/>
<path d="M185.927 52.9139C185.927 51.4739 186.455 50.2019 187.511 49.0979C188.615 47.9459 189.863 47.3699 191.255 47.3699C192.359 47.3699 193.247 47.7299 193.919 48.4499C194.591 49.1699 194.927 50.0579 194.927 51.1139C194.927 52.5539 194.375 53.8259 193.271 54.9299C192.167 56.0339 190.919 56.5859 189.527 56.5859C188.471 56.5859 187.607 56.2499 186.935 55.5779C186.263 54.8579 185.927 53.9699 185.927 52.9139ZM183.767 71.2019C184.151 70.0499 184.343 69.1619 184.343 68.5379C184.343 67.3379 183.815 66.7379 182.759 66.7379C181.655 66.7379 180.671 67.3139 179.807 68.4659C178.943 69.6179 178.031 71.4899 177.071 74.0819L176.063 76.7459H174.695L176.567 71.4899C177.527 68.7539 178.799 66.8339 180.383 65.7299C182.015 64.6259 183.719 64.0739 185.495 64.0739C188.663 64.0739 190.247 65.5859 190.247 68.6099C190.247 70.1939 189.863 72.0419 189.095 74.1539L181.391 95.9699C181.007 97.1219 180.815 98.0099 180.815 98.6339C180.815 99.8339 181.391 100.434 182.543 100.434C183.551 100.434 184.487 99.8819 185.351 98.7779C186.215 97.6739 187.151 95.7779 188.159 93.0899L189.167 90.4259H190.535L188.663 95.6819C187.703 98.3219 186.431 100.218 184.847 101.37C183.311 102.522 181.631 103.098 179.807 103.098C176.447 103.098 174.767 101.634 174.767 98.7059C174.767 97.3139 175.199 95.4179 176.063 93.0179L183.767 71.2019Z" fill="#040402"/>
<path d="M223.565 64.0739C225.917 64.0739 227.741 64.9379 229.037 66.6659C230.381 68.3459 231.053 70.8659 231.053 74.2259C231.053 78.1139 230.189 82.3379 228.461 86.8979C226.733 91.4099 224.261 95.2499 221.045 98.4179C217.829 101.538 214.133 103.098 209.957 103.098C208.661 103.098 207.485 102.738 206.429 102.018C205.373 101.25 204.605 100.218 204.125 98.9219L201.389 108.426C201.197 109.002 201.101 109.578 201.101 110.154C201.101 111.402 201.629 112.29 202.685 112.818C203.741 113.346 205.253 113.61 207.221 113.61L206.789 115.122L205.277 115.05C201.101 114.906 198.389 114.834 197.141 114.834C195.845 114.834 193.181 114.93 189.149 115.122L189.581 113.61C191.309 113.61 192.557 113.298 193.325 112.674C194.093 112.05 194.717 110.874 195.197 109.146L208.661 61.1219C207.221 64.3379 205.541 67.1699 203.621 69.6179C201.701 72.0659 199.325 74.6339 196.493 77.3219L195.701 76.3859C197.957 74.1779 199.829 72.2099 201.317 70.4819C202.853 68.7539 204.365 66.6659 205.853 64.2179C207.389 61.7219 208.901 58.6739 210.389 55.0739L210.677 54.0659C213.269 53.9699 215.453 53.6339 217.229 53.0579L209.741 79.2659C211.997 73.9379 214.229 70.0739 216.437 67.6739C218.693 65.2739 221.069 64.0739 223.565 64.0739ZM209.885 101.442C212.429 101.442 214.853 99.8579 217.157 96.6899C219.461 93.4739 221.309 89.5859 222.701 85.0259C224.141 80.4659 224.861 76.3379 224.861 72.6419C224.861 70.5779 224.549 69.0179 223.925 67.9619C223.349 66.9059 222.533 66.3779 221.477 66.3779C220.133 66.3779 218.549 67.4819 216.725 69.6899C214.949 71.8499 213.149 74.7779 211.325 78.4739C209.501 82.1699 207.893 86.2019 206.501 90.5699L204.629 97.1219C205.205 98.6579 205.925 99.7619 206.789 100.434C207.653 101.106 208.685 101.442 209.885 101.442Z" fill="#040402"/>
</svg>
